<svg xmlns="http://www.w3.org/2000/svg" fill="none" viewBox="0 0 24 24" id="Jfrog--Streamline-Svg-Logos" height="24" width="24">
  <desc>
    Jfrog Streamline Icon: https://streamlinehq.com
  </desc>
  <path fill="#41bf47" d="m10.6844 15.555675 -1.241775 0.34555c0.107975 0.313125 0.19435 0.874625 0.19435 1.6305v3.7145h1.39295V17.31575c0.25915 -0.31315 0.5399 -0.4643 0.84225 -0.4643 0.151175 0 0.26995 0.032375 0.399525 0.107975l0.377925 -1.284975c-0.21595 -0.097175 -0.313125 -0.118775 -0.5183 -0.118775 -0.151175 0 -0.334725 0.0324 -0.4535 0.086375 -0.259175 0.1296 -0.5831 0.421125 -0.788275 0.701875 0 -0.313125 -0.075575 -0.5615 -0.20515 -0.78825Zm-4.794325 -1.83565h-0.151175v7.5154h1.446925V17.90965h1.824875v-1.241775h-1.824875v-1.727675h2.2784l0.086375 -0.6587c-1.37135 -0.097175 -2.613125 -0.313125 -3.660525 -0.561475ZM2.5103 22.23965l0.669475 0.77745c0.647875 -0.25915 1.457725 -0.842225 1.6737 -1.770875 0.075575 -0.302325 0.097175 -0.4967 0.097175 -1.479325V13.7308h-1.457725v6.198075c0 0.80985 -0.0324 1.1122 -0.140375 1.39295 -0.140375 0.313125 -0.475125 0.680275 -0.84225 0.917825Zm13.141175 -3.8117c0 1.31735 -0.25915 1.87885 -0.853025 1.87885 -0.26995 0 -0.5723 -0.151175 -0.701875 -0.4535 -0.107975 -0.28075 -0.172775 -0.755875 -0.172775 -1.40375 0 -0.5507 0.054 -0.939425 0.140375 -1.241775 0.107975 -0.34555 0.377925 -0.5615 0.712675 -0.5615 0.24835 0 0.4643 0.107975 0.593875 0.29155 0.194375 0.25915 0.28075 0.74505 0.28075 1.490125Zm0.85305 2.1596c0.453525 -0.5399 0.658675 -1.198575 0.658675 -2.1488 0 -0.89625 -0.18355 -1.511725 -0.604675 -2.030025 -0.453525 -0.5615 -1.036625 -0.83145 -1.792475 -0.83145 -1.42535 0 -2.375575 1.155375 -2.375575 2.904675 0 1.749275 0.939425 2.872275 2.375575 2.872275 0.80985 0.010775 1.33895 -0.29155 1.738475 -0.766675Zm3.952075 -3.109825c0 0.5075 -0.30235 0.78825 -0.84225 0.78825 -0.4859 0 -0.80985 -0.22675 -0.80985 -0.78825 0 -0.5183 0.30235 -0.82065 0.82065 -0.82065s0.83145 0.30235 0.83145 0.82065Zm2.45115 -1.187775 -0.5723 -0.91785c-0.323925 0.30235 -0.71265 0.475125 -1.0906 0.475125 -0.17275 0 -0.26995 -0.0216 -0.647875 -0.118775 -0.377925 -0.107975 -0.647875 -0.140375 -0.950225 -0.140375 -1.34975 0 -2.2244 0.73425 -2.2244 1.87885 0 0.82065 0.36715 1.33895 1.1338 1.544125 -0.31315 0.075575 -0.647875 0.23755 -0.79905 0.421125 -0.107975 0.129575 -0.161975 0.302325 -0.161975 0.5075 0 0.172775 0.0432 0.32395 0.107975 0.453525 0.0756 0.118775 0.172775 0.21595 0.30235 0.26995 0.24835 0.097175 0.647875 0.16195 1.263375 0.17275 0.323925 0 0.5183 0.0108 0.5831 0.0108 0.377925 0.0216 0.572275 0.0864 0.72345 0.161975 0.140375 0.086375 0.24835 0.28075 0.24835 0.4967 0 0.215975 -0.129575 0.431925 -0.334725 0.5615 -0.183575 0.129575 -0.485925 0.183575 -0.87465 0.183575 -0.637075 0 -0.9934 -0.23755 -0.9934 -0.680275 0 -0.194375 0.021575 -0.23755 0.064775 -0.356325h-1.274175c-0.053975 0.107975 -0.118775 0.25915 -0.118775 0.561475 0 0.37795 0.140375 0.701875 0.431925 0.982625 0.475125 0.464325 1.252575 0.5939 1.99765 0.5939 0.820625 0 1.6197 -0.194375 2.084 -0.712675 0.29155 -0.32395 0.421125 -0.680275 0.421125 -1.144575 0 -0.496725 -0.140375 -0.87465 -0.453525 -1.1878 -0.367125 -0.356325 -0.78825 -0.4859 -1.5981 -0.4967l-0.74505 -0.0108c-0.140375 0 -0.226775 -0.054 -0.226775 -0.129575 0 -0.151175 0.194375 -0.28075 0.5507 -0.453525 0.107975 0.0108 0.140375 0.0108 0.205175 0.0108 1.123 0 1.94365 -0.691075 1.94365 -1.6521 0 -0.367125 -0.108 -0.647875 -0.31315 -0.907025 0.172775 0.0216 0.22675 0.0324 0.356325 0.0324 0.36715 0 0.658675 -0.118775 0.961025 -0.410325Zm-17.3848 -9.10275c-1.7277 0.421125 -2.904675 1.252575 -2.904675 2.2028 0 0.5939 0.453525 1.1338 1.198575 1.554925 -0.22675 -0.356325 -0.345525 -0.745075 -0.345525 -1.1338 0.0108 -0.982625 0.77745 -1.90045 2.051625 -2.623925ZM23.75 10.912525c0 -0.626275 -0.388725 -1.198575 -1.0366 -1.6737 0.053975 0.194375 0.097175 0.38875 0.097175 0.5831 0 1.781675 -2.49435 3.315 -6.0361 3.952075 0.399525 0.0432 0.80985 0.0648 1.241775 0.0648C21.180075 13.828 23.75 12.521425 23.75 10.912525Zm-2.040825 -0.971825c0 -0.658675 -0.5615 -1.26335 -1.522525 -1.760075 0.22675 0.26995 0.34555 0.5615 0.34555 0.86385 0 1.5873 -3.369 2.872275 -7.537025 2.872275 -4.15725 0 -7.537025 -1.284975 -7.537025 -2.872275 0 -0.205175 0.054 -0.399525 0.161975 -0.5831 -0.669475 0.442725 -1.0474 0.950225 -1.0474 1.490125 0 1.7169 3.833275 3.109825 8.562825 3.109825 4.729525 0 8.573625 -1.414525 8.573625 -3.120625Zm-3.736125 -0.086375c-1.749275 1.123 -7.126675 1.5549 -9.43745 0.107975 -1.814075 -1.1338 -1.1878 -2.93705 -6.38164 -6.889125 -0.6802775 -0.518325 0.129575 -1.0690125 0.63709 -0.7126775 0.5075 0.3563275 0.043175 0.4427275 1.069 1.4685275 2.073225 2.073225 2.051625 0.205175 2.37555 0.917825 0.691075 1.47935 2.2028 2.969475 2.2028 2.969475 1.522525 0.9934 2.7319 1.209375 4.9779 -0.31315 1.425325 -0.961025 0.84225 1.533325 4.33 -0.26995 1.274175 -0.658675 1.220175 -0.215975 2.51595 -2.019225 0.5399 -0.745075 1.5657 0.572275 0.399525 0.75585 -0.464325 0.0756 -1.252575 0.5831 -1.587325 1.38215 -0.4859 1.198575 -0.28075 2.084025 -1.1014 2.602325ZM8.276425 6.809275c-0.4319 -0.19435 -0.885425 -0.928625 -1.0582 -1.220175 0.485925 -0.4751 0.29155 -1.263375 0.0108 -1.695275 -0.26995 -0.431925 -0.604675 -0.31315 -0.961025 -0.712675 -0.367125 -0.399525 0.140375 -1.43614 0.6047 -0.637075 1.738475 2.99105 2.883075 1.749275 4.2976 1.5657 1.36055 -0.172775 2.569925 0.5723 2.937075 -1.533325 0.064775 -0.34553 0.399525 -0.421115 0.431925 0.140375 0.032375 0.5723 0.24835 1.95445 0.9934 2.127225 0.745075 0.18355 1.34975 -0.172775 1.522525 -0.36715 0.172775 -0.19435 0.26995 -0.17275 0.34555 0.32395 0.075575 0.4859 0.26995 1.166175 1.31735 0.410325 2.1488 -1.533325 1.533325 -2.1272 2.37555 -2.52675 0.475125 -0.226745 1.230975 0.507525 0.140375 1.058225 -1.5549 0.78825 -1.716875 1.760075 -2.6995 2.37555 -1.6521 1.036625 -1.144575 0.0432 -3.8009 -0.334725 -1.0258 -0.140375 -1.34975 0.9934 -2.1488 0.669475 -1.824875 -0.755875 -3.109825 -0.6047 -4.308425 0.356325ZM14.031775 1.2698975c0.0648 0.453515 0.140375 0.4427175 0.30235 0.4751125 0.161975 0.0431925 0.367125 -0.21596 0.367125 -0.4535175 0.0108 -0.248355 -0.107975 -0.3995275 -0.345525 -0.3887275 -0.24835 0.0107975 -0.33475 0.129575 -0.32395 0.3671325Zm7.99055 0.80985c0.19435 0.1835675 0.71265 0.06479 0.83145 -0.075585 0.313125 -0.3455375 0.323925 -0.5507 0.16195 -0.788255 -0.16195 -0.22676 -0.4967 -0.194365 -0.83145 0.05399 -0.334725 0.248355 -0.26995 0.7126675 -0.16195 0.80985Zm-0.140375 2.2891775c-0.161975 0.215975 -0.172775 0.377925 -0.054 0.4967 0.129575 0.1296 0.388725 0.237575 0.5723 0.0972 0.183575 -0.151175 0.183575 -0.36715 0.0324 -0.5507 -0.161975 -0.194375 -0.37795 -0.194375 -0.5507 -0.0432ZM5.49055 1.6694225c0.24835 0.0755875 0.367125 0.3131425 0.5723 0.0431925 0.107975 -0.129575 0.118775 -0.3131425 -0.0216 -0.5075075 -0.0864 -0.1187775 -0.496725 -0.20516 -0.669475 -0.0323925 -0.172775 0.1727675 -0.0108 0.4535175 0.118775 0.4967075ZM0.426275 1.5182525C0.8797925 1.799 1.17134 2.2201225 1.516875 1.8421925c0.11878 -0.1295775 0.2591525 -0.356335 0.0107975 -0.8098525 -0.183565 -0.3347375 -0.7774575 -0.464315 -0.9826175 -0.3347375 -0.2159625 0.1187775 -0.47511425 0.6046875 -0.11878 0.82065Zm4.178825 2.1487975c0.140375 0.151175 0.38875 0.140375 0.5399 0.054 0.140375 -0.086375 0.1188 -0.31315 -0.021575 -0.5075 -0.0864 -0.1188 -0.34555 -0.183575 -0.518325 0 -0.17275 0.18355 -0.097175 0.345525 0 0.4535Z" stroke-width="0.25"></path>
</svg>